PathFileType	4	(X/Y/Z)	27_2_10_p0_0-336_filt_butterworth.trc
DataRate	CameraRate	NumFrames	NumMarkers	Units	OrigDataRate	OrigDataStartFrame	OrigNumFrames
60.0	60.0	7	27	m	60.0	294	336
Frame#	Time	RHip			RKnee			RAnkle			RBigToe			RSmallToe			RHeel			LHip			LKnee			LAnkle			LBigToe			LSmallToe			LHeel			Neck			Head			Nose			RShoulder			RElbow			RWrist			RThumb			RIndex			RPinky			LShoulder			LElbow			LWrist			LThumb			LIndex			LPinky			
		X1	Y1	Z1	X2	Y2	Z2	X3	Y3	Z3	X4	Y4	Z4	X5	Y5	Z5	X6	Y6	Z6	X7	Y7	Z7	X8	Y8	Z8	X9	Y9	Z9	X10	Y10	Z10	X11	Y11	Z11	X12	Y12	Z12	X13	Y13	Z13	X14	Y14	Z14	X15	Y15	Z15	X16	Y16	Z16	X17	Y17	Z17	X18	Y18	Z18	X19	Y19	Z19	X20	Y20	Z20	X21	Y21	Z21	X22	Y22	Z22	X23	Y23	Z23	X24	Y24	Z24	X25	Y25	Z25	X26	Y26	Z26	X27	Y27	Z27	
294	4.9	0.14262571966025808	0.8946304280433024	0.8008158585492711	0.16361448161732353	0.39441216992387174	0.816005125012519	0.18343680646172092	-0.09096822684762336	0.816118197038102	0.13052975867556676	-0.07587697875467123	0.6021412585422988	0.19724997874464856	-0.062273232014284696	0.6126145831559601	0.1618824049982217	-0.17315890916419566	0.8892014005135924	-0.07818451982782543	0.8649328350428244	0.8550438045770202	-0.054511667048942114	0.3724608545776316	0.8420746758325229	-0.03896769708792678	-0.09191005215438838	0.8054250748200833	-0.029042770473234572	-0.05839752736924654	0.5977304181694416	-0.08126364016256066	-0.08382819212440804	0.646726572386147	-0.02101465930049503	-0.15534171270285427	0.8484017809581763	0.0022309012908659914	1.4213080522306356	0.8939078802767861	0.014828567339298073	1.673102333749266	0.8659668038609075	-0.017543629527983176	1.5654622667314908	0.7799434392602154	0.16092388806116947	1.3467810456427571	0.8392049148315623	0.19099477205502308	1.0695074006061056	0.7880898550107036	0.10657505068981557	0.858924925975932	0.6726144678296503	0.046147457407682016	0.7985843578680365	0.6010931965306576	0.04016884300143558	0.7548125063213316	0.6258688683532979	0.03149213190362646	0.7376472017148158	0.6762013719444051	-0.1520015994613859	1.3270889928017797	0.8638146708494152	-0.17040099108981843	1.0730380433283957	0.8130871369916421	-0.06503375048834183	0.8686334238760587	0.6766837730793833	0.056615115304461436	0.831806182518265	0.6139885413859063	0.052831096376708485	0.7894807752869429	0.6367089651120288	0.012890746751215786	0.746789253533944	0.6611781575168363	
295	4.916666666666667	0.14204459449314286	0.8941423362266044	0.8011293787533029	0.16296708599733478	0.39491759439531104	0.8136457790081602	0.18344503133173717	-0.09106439118400292	0.8159094792121306	0.1305803777884005	-0.07578950671964173	0.6020317924514654	0.19722431792871772	-0.06228539121498325	0.6125960847141829	0.16190527353231704	-0.1729948194752494	0.8892354227696163	-0.0783805050029324	0.8640318659284976	0.8562535291581548	-0.054504438009243636	0.37238566145423485	0.8420855062778573	-0.038981384669279945	-0.09202071563776945	0.8054226638410739	-0.02905318940310881	-0.058375006232397	0.5976888575572166	-0.08126418973725207	-0.08381810448353408	0.6467306478484238	-0.02073886350804134	-0.15536216823221458	0.8484263563715219	0.0021971735755842037	1.4218275753181597	0.8940266955586826	0.01483032189030628	1.6731055710792995	0.8659783064527132	-0.018365481186581108	1.5668813944274762	0.7800439834252106	0.16086699428140216	1.347205496740103	0.8390466618070249	0.1906596902267555	1.0694823859870917	0.7881011206314557	0.1067249693226663	0.8579012678194461	0.6724410861475433	0.045967966790170844	0.7979581971722971	0.6009412841500126	0.04037150369670399	0.7547559187487728	0.6236742000158928	0.03147880335153479	0.7385466382717287	0.6730899636421428	-0.15222699081515623	1.3271625801735758	0.863515344806496	-0.17051548841294903	1.0729903052305565	0.8136308387323238	-0.06646013027175386	0.8688349089506285	0.6764162083737331	0.056309743482093236	0.8310553274904134	0.6135963516754153	0.0523633687171151	0.7891267203298512	0.6356642660775351	0.012803137429303755	0.7467977569851273	0.6609377979764018	
296	4.933333333333334	0.14151702264521113	0.8935884838712674	0.8014027432859795	0.16264252850239933	0.3951249422807587	0.8117961824376412	0.18356358607715106	-0.09123873271208112	0.8159620413962797	0.13063008289070452	-0.07576124963608162	0.6020226184221792	0.19720003700792327	-0.06237024821666226	0.6127230462959764	0.16191301620332724	-0.17298530816562374	0.8892437191931013	-0.07866811707750188	0.863152051235653	0.8573768074957252	-0.05452077229144488	0.3723413507108504	0.8420984978029646	-0.03899086738380283	-0.09222238063908503	0.8054047346965025	-0.029060438720825733	-0.0583446878283326	0.5976516312549873	-0.08127999426175309	-0.083798404268295	0.6467255064597569	-0.020403198547471742	-0.15557450516873228	0.8486289346831885	0.0021688095342348767	1.4221010298872105	0.89408102618232	0.014816392791168247	1.6730969291611482	0.8660020593349177	-0.01901228467708949	1.568168983139132	0.7801860362034955	0.1608505939805631	1.3474557700345897	0.8393236065474896	0.19000642331874973	1.0694692372623171	0.7881062657204423	0.10678303273063616	0.8576709864439642	0.6723037643656413	0.04558516639830433	0.7973574927949455	0.6009250366706343	0.04072778292466256	0.7543141260137926	0.6216921025591429	0.03174843050745733	0.7400562205489032	0.6700184147855685	-0.15249909208844567	1.327578081677708	0.8632914221172057	-0.17044525120227338	1.0728692111599896	0.8136292914977369	-0.06759678943090118	0.8689717792140981	0.6759437979316554	0.055920825384275244	0.829943413160646	0.6129741969126677	0.052097535552035945	0.7886842741216745	0.6350208858265427	0.01253990446767072	0.7468927120746213	0.660631848794691	
297	4.95	0.14099988873525374	0.8929990588173919	0.8016230733276932	0.16262375549394598	0.39504562151856026	0.8105415189697839	0.18373232232824538	-0.09147713581274908	0.8161693513405532	0.13066428639905242	-0.0757870336416339	0.6021026698347967	0.19717474388189554	-0.06249820898174549	0.6129409685281065	0.16190638309601713	-0.17315672081308078	0.8892269168458032	-0.0790665863919863	0.8623849105237039	0.8583243120295339	-0.054541116980011795	0.37231768116673364	0.8421155242261859	-0.038998132986762385	-0.09251709478567187	0.8053704159628591	-0.02906513235805746	-0.058317707055541734	0.5976245939191748	-0.08131751583080146	-0.08377650092622453	0.6467085089391162	-0.020043284386861482	-0.15594710013275392	0.8489694639898836	0.0021455792669063645	1.4221185505080383	0.8940819815644068	0.01478812681376778	1.6730794723500042	0.8660265462219279	-0.019396558768070254	1.5690350160618316	0.7803093816807054	0.16060935295035872	1.3476749807059936	0.8396598550694301	0.1891445891893368	1.0694617253646055	0.7880955237157697	0.10668938140501608	0.8582016865271127	0.6722022621711206	0.045097074283713	0.796846513060212	0.600877530541277	0.04100209303910658	0.7536126048709312	0.6202089131786103	0.03197563388413838	0.7419703488298909	0.6674243422098352	-0.152927205644438	1.3283037838045177	0.8636621058601004	-0.1702911932896205	1.0726975562598025	0.8134565339598898	-0.06840578495870586	0.8690695970387151	0.6755125601330263	0.05540922862760801	0.8287075467629426	0.6122447373351126	0.05192248768819557	0.7883061194063895	0.6346048723017628	0.012090227195161002	0.7470695246077361	0.6603228580162138	
298	4.966666666666667	0.14046490750808224	0.8923901491491631	0.8018798922912148	0.16281514526406807	0.3947034471287846	0.809796568171196	0.1839080757233636	-0.09172378056603457	0.8163820239071216	0.13067737768695467	-0.0758479035884411	0.6022243817463429	0.19714487036930362	-0.06261093782974954	0.613137551480582	0.1618768001003912	-0.17346772953585113	0.8891994078418096	-0.07957643598386295	0.8617549852332096	0.8590836484352466	-0.05455890111629523	0.37231699239796223	0.8421423940616766	-0.039005164253204695	-0.09286747762535122	0.8053195477663201	-0.02906788274028569	-0.05828939538189687	0.5976052237597486	-0.08137771523992637	-0.0837437692384764	0.6466692739345093	-0.01966332337288178	-0.15646571529230568	0.8494242874815935	0.0021248493490361254	1.4219643532364765	0.8940580538963863	0.014754485403333833	1.673056333623585	0.8660414976349216	-0.019509577441230382	1.5694046998953868	0.7803960618896321	0.16006156858768736	1.3479265367404212	0.8398546670045794	0.1882064816732381	1.0694516053646113	0.7880759748993974	0.1064862997585915	0.8592285168880573	0.6721256186221851	0.044625268178869984	0.7964605701659565	0.6008060079753023	0.04112665363512853	0.7528025677245719	0.6192854224801793	0.03193453288201556	0.7438042252818751	0.6657022732998139	-0.15362298029702126	1.3292154374690661	0.8649510886728682	-0.1701345424271917	1.0725651168104997	0.8133561727832275	-0.0690760009926863	0.868999864068611	0.6755663087645079	0.05486005396080709	0.8277092883481688	0.6115211886601941	0.051659931570922676	0.7880087491345364	0.6345100299726888	0.0114943408088694	0.7473023285652125	0.6600760311790819	
299	4.983333333333333	0.1399137455987511	0.8917269098019421	0.802356571803022	0.1631176385484467	0.3941615120311066	0.8094650416400524	0.18408046503017378	-0.09197245005929057	0.8166085818156411	0.13066627817511192	-0.07593666468041702	0.6023398000429883	0.19710448758358445	-0.06265881189069426	0.6132158238615445	0.16181063685605018	-0.17383288707669153	0.8891703076143342	-0.08018851982315946	0.8612576054644949	0.8596662839618308	-0.05457567691422263	0.37235492291841954	0.84218547692237	-0.039010103434105416	-0.09321277302991084	0.8052497779460066	-0.02907070915546337	-0.05824970638053907	0.5975848156021422	-0.08145131538109975	-0.08370026741959538	0.6466118176428962	-0.019245959166664196	-0.15712920085713447	0.8499909548452695	0.002102670082855765	1.4218116305365356	0.8940510785679741	0.014725694142435845	1.6730304358513584	0.8660444285564417	-0.019451389039386178	1.5693601622682256	0.7804404090650463	0.15930092233804938	1.3481776999021553	0.8399241041226626	0.1873194193089	1.0694320846626388	0.788052082617406	0.10625159799177741	0.8603772702023508	0.6720483571342554	0.04426602492710008	0.7962339601162001	0.6007589686687816	0.04114121283036698	0.7520374038594168	0.6187805099192575	0.031625224870924916	0.7449289610121487	0.6652387738807264	-0.15460500289365575	1.3301664330534133	0.867080351929448	-0.1700636718526773	1.0725516001222035	0.8133487624663478	-0.06981186726268616	0.8685970712081228	0.6764535513878285	0.05437288101039931	0.8272330312326769	0.6108726109577318	0.05111396213569322	0.7876732412985702	0.6350512823732595	0.010831255956789368	0.7475507373109229	0.6599444865094074	
300	5.0	0.13937770228979662	0.8909452449340259	0.8032010720040194	0.16346343168003552	0.3934953616246186	0.8095366858929807	0.1842632529238705	-0.09228573570836454	0.8169599009079126	0.1306345575726618	-0.07602884280426897	0.6024139793293518	0.1970511092346569	-0.06262807682626424	0.6131455331383909	0.16170913685773428	-0.17412729770150792	0.8891389965576185	-0.08087473669485251	0.8608754850644577	0.860078751759467	-0.05459276022440231	0.37242917937970704	0.8422381514964626	-0.03900494535829277	-0.09351210258976096	0.8051534550018657	-0.029077276768671237	-0.05819763995963638	0.5975567243018758	-0.0815115821496449	-0.08366933195285316	0.6465608356830084	-0.018767522520057985	-0.15793014312055248	0.8506655263307624	0.00207746765801798	1.4218324612243876	0.8940967265121798	0.014708145176372667	1.6730050010256232	0.8660392141956517	-0.01936443988083887	1.5690344607242874	0.7804231387078028	0.15847401037666575	1.3484096165808026	0.8399535641175226	0.18660541317399282	1.069392169549028	0.7880198997052184	0.10604462340622697	0.8613286668942359	0.6719438659728888	0.04407437396069378	0.7961611198066079	0.6007597313052251	0.04110700986710707	0.7514047236454923	0.6185543062303684	0.03118349135585307	0.7449809011735924	0.6661863200988393	-0.15577618986425176	1.3309746327173526	0.8696744675606964	-0.1701922070200616	1.0726320252389983	0.8133521068348557	-0.07064400092925907	0.8678022564289941	0.6782315912522039	0.05396790758330721	0.8272890049274039	0.6103430956796366	0.050203481186377616	0.7871470931849653	0.6364257662309437	0.01020341278746561	0.7477735326473746	0.659933858097304	
